HIERARCHY
ROOT Hips
{
	OFFSET 0.00 0.00 0.00
	CHANNELS 6 Xposition Yposition Zposition Xrotation Yrotation Zrotation
	JOINT Spine
	{
		OFFSET 0.00000 7.50895 0.00000
		CHANNELS 3 Xrotation Yrotation Zrotation
		JOINT Head
		{
			OFFSET 0.00000 13.86115 0.00000
			CHANNELS 3 Xrotation Yrotation Zrotation
			End Site
			{
				OFFSET 0.00000 4.52755 0.00000
			}
		}
		JOINT LeftShoulder
		{
			OFFSET 0.00000 8.20478 0.00000
			CHANNELS 3 Xrotation Yrotation Zrotation
			JOINT LeftArm
			{
				OFFSET 6.63596 0.00000 0.00000
				CHANNELS 3 Xrotation Yrotation Zrotation
				JOINT LeftForeArm
				{
					OFFSET 10.27422 0.00000 0.00000
					CHANNELS 3 Yrotation Zrotation Xrotation
					JOINT LeftHand
					{
						OFFSET 8.52215 0.00000 0.00000
						CHANNELS 3 Xrotation Yrotation Zrotation
						JOINT LeftHandThumb1
						{
							OFFSET 0.00000 0.00000 0.00000
							CHANNELS 3 Xrotation Zrotation Yrotation
							End Site
							{
								OFFSET 0.00000 0.00000 3.93700
							}
						}
						End Site
						{
							OFFSET 3.93700 0.00000 0.00000
						}
					}
				}
			}
		}
		JOINT RightShoulder
		{
			OFFSET 0.00000 8.20478 0.00000
			CHANNELS 3 Xrotation Yrotation Zrotation
			JOINT RightArm
			{
				OFFSET -6.63596 0.00000 0.00000
				CHANNELS 3 Xrotation Yrotation Zrotation
				JOINT RightForeArm
				{
					OFFSET -10.27422 0.00000 0.00000
					CHANNELS 3 Yrotation Zrotation Xrotation
					JOINT RightHand
					{
						OFFSET -8.52215 0.00000 0.00000
						CHANNELS 3 Xrotation Yrotation Zrotation
						JOINT RightHandThumb1
						{
							OFFSET 0.00000 0.00000 0.00000
							CHANNELS 3 Xrotation Zrotation Yrotation
							End Site
							{
								OFFSET 0.00000 0.00000 3.93700
							}
						}
						End Site
						{
							OFFSET -3.93700 0.00000 0.00000
						}
					}
				}
			}
		}
	}
	JOINT LeftUpLeg
	{
		OFFSET 3.00056 0.00000 0.00000
		CHANNELS 3 Xrotation Yrotation Zrotation
		JOINT LeftLeg
		{
			OFFSET 0.00000 -16.49085 0.00000
			CHANNELS 3 Xrotation Yrotation Zrotation
			JOINT LeftFoot
			{
				OFFSET 0.00000 -14.55658 0.00000
				CHANNELS 3 Xrotation Yrotation Zrotation
				JOINT LeftToeBase
				{
					OFFSET 0.00000 -1.25038 4.66650
					CHANNELS 3 Xrotation Yrotation Zrotation
					End Site
					{
						OFFSET 0.00000 0.00000 2.95275
					}
				}
			}
		}
	}
	JOINT RightUpLeg
	{
		OFFSET -3.00056 0.00000 0.00000
		CHANNELS 3 Xrotation Yrotation Zrotation
		JOINT RightLeg
		{
			OFFSET 0.00000 -16.49085 0.00000
			CHANNELS 3 Xrotation Yrotation Zrotation
			JOINT RightFoot
			{
				OFFSET 0.00000 -14.55658 0.00000
				CHANNELS 3 Xrotation Yrotation Zrotation
				JOINT RightToeBase
				{
					OFFSET 0.00000 -1.25038 4.66650
					CHANNELS 3 Xrotation Yrotation Zrotation
					End Site
					{
						OFFSET 0.00000 0.00000 2.95275
					}
				}
			}
		}
	}
}
MOTION
Frames: 22
Frame Time: 0.008333
 -2.8555 32.8783 -3.6721 12.9368 -3.2244 -1.1971 -11.8192 5.9215 2.8484 -11.8723 -6.4201 6.5646 19.9065 22.5400 25.8265 -33.0485 -6.4483 -31.4684 -14.0397 -0.0000 7.4935 -1.8032 31.4541 3.4525 33.1476 -0.0000 26.2537 -17.7298 -5.9093 -37.5530 -3.3183 -12.3115 34.8851 17.5390 -0.0000 28.4097 1.3959 -10.3936 7.6923 32.8623 0.0000 -24.3270 -8.5844 7.8552 4.0801 0.7493 0.0000 -0.0000 -8.6526 14.6451 -15.3294 5.6237 0.0000 0.0000 -10.4515 -3.1568 0.9622 5.7416 0.0000 -0.0000 -10.7146 2.0502 -5.3366 -0.6349 -0.0000 -0.0000
 -2.8752 32.8791 -3.6688 12.9535 -3.2846 -1.1838 -11.7913 5.8828 2.8615 -11.7439 -6.5197 6.6832 19.8007 22.4520 25.7466 -32.9436 -6.4810 -31.4348 -14.0533 -0.0000 7.3769 -1.7253 31.5080 3.2986 33.1476 -0.0000 26.2537 -17.6841 -5.9906 -37.4988 -3.3478 -12.2931 34.8921 17.5886 -0.0000 28.3359 1.4026 -10.4192 7.7102 32.8623 0.0000 -24.3270 -8.5710 7.8812 4.1087 0.7097 0.0000 0.0000 -8.6185 14.6921 -15.3513 5.6491 -0.0000 -0.0000 -10.4795 -3.0202 0.9843 5.7859 -0.0000 -0.0000 -10.7596 1.9956 -5.3060 -0.5460 0.0000 0.0000
 -2.8977 32.8781 -3.6649 12.9842 -3.3424 -1.1724 -11.7800 5.8328 2.8811 -11.6766 -6.5938 6.7100 19.8710 22.4873 25.6432 -33.1519 -6.4733 -31.5445 -14.0404 -0.0000 7.1558 -1.9727 31.4241 3.7796 33.1476 -0.0000 26.2537 -17.6672 -6.0286 -37.4831 -3.3540 -12.3645 34.9462 17.6747 -0.0000 28.3396 1.3653 -10.3382 7.5653 32.8623 0.0000 -24.3270 -8.5751 7.8918 4.1471 0.6776 -0.0000 0.0000 -8.5946 14.7483 -15.4124 5.6506 -0.0000 0.0000 -10.5128 -2.9402 1.0289 5.7854 -0.0000 0.0000 -10.7433 2.0259 -5.3415 -0.6218 0.0000 0.0000
 -2.9187 32.8769 -3.6631 13.0177 -3.3841 -1.1518 -11.7664 5.7702 2.8808 -11.5641 -6.7453 6.7972 19.9127 22.4905 25.5170 -33.2954 -6.4760 -31.5883 -14.1095 -0.0000 6.9325 -2.1101 31.4522 4.0391 33.1476 -0.0000 26.2537 -17.6580 -6.0589 -37.4308 -3.3333 -12.4095 34.9731 17.7163 -0.0000 28.3614 1.3274 -10.1488 7.4915 32.8623 0.0000 -24.3270 -8.5894 7.8664 4.1679 0.6638 -0.0000 0.0000 -8.5819 14.8373 -15.4281 5.5981 -0.0000 0.0000 -10.5610 -2.8061 1.0581 5.8176 0.0000 -0.0000 -10.7671 1.9789 -5.4332 -0.5961 -0.0000 0.0000
 -2.9413 32.8763 -3.6577 13.0254 -3.4940 -1.1313 -11.7339 5.7589 2.8909 -11.4341 -6.9267 6.8867 19.8178 22.3924 25.4633 -33.2842 -6.3591 -31.6654 -14.2581 -0.0000 6.8479 -2.1840 31.4244 4.1835 33.1476 -0.0000 26.2537 -17.6174 -6.0859 -37.3514 -3.3313 -12.4828 34.9925 17.8345 -0.0000 28.4678 1.3360 -10.2336 7.4787 32.8623 0.0000 -24.3270 -8.5520 7.9031 4.2005 0.6137 -0.0000 -0.0000 -8.5527 14.9178 -15.4378 5.5851 -0.0000 0.0000 -10.5867 -2.6269 1.0978 5.8523 -0.0000 0.0000 -10.7803 1.9413 -5.4816 -0.6270 0.0000 0.0000
 -2.9639 32.8755 -3.6543 13.0633 -3.5552 -1.1207 -11.7270 5.7073 2.9208 -11.2901 -7.1378 6.9717 19.8013 22.3510 25.3162 -33.3939 -6.3766 -31.7397 -14.2846 -0.0000 6.6422 -2.3980 31.4021 4.5952 33.1476 -0.0000 26.2537 -17.6276 -6.1227 -37.2720 -2.9420 -12.3392 35.0224 18.0173 -0.0000 28.1197 1.3161 -10.2263 7.3737 32.8623 0.0000 -24.3270 -8.5516 7.8320 4.2332 0.5740 -0.0000 -0.0000 -8.5459 15.0718 -15.4420 5.6345 -0.0000 0.0000 -10.6497 -2.4794 1.1324 5.9325 0.0000 -0.0000 -10.8537 1.8908 -5.4854 -0.5805 -0.0000 -0.0000
 -2.9868 32.8751 -3.6497 13.0883 -3.6045 -1.1149 -11.7082 5.6564 2.9428 -11.1281 -7.3460 7.0871 19.7905 22.3612 25.1696 -33.4786 -6.4827 -31.8714 -14.3991 -0.0000 6.3989 -2.7309 31.3675 5.2357 33.1476 -0.0000 26.2537 -17.5894 -6.1620 -37.1951 -2.7874 -12.4101 35.0987 18.2710 -0.0000 28.1972 1.3212 -10.6125 7.1380 32.8623 0.0000 -24.3270 -8.5453 7.7761 4.2723 0.5434 0.0000 0.0000 -8.5316 15.2037 -15.4820 5.6761 0.0000 0.0000 -10.6875 -2.3784 1.1793 5.9564 0.0000 -0.0000 -10.8367 1.9091 -5.5100 -0.6860 -0.0000 0.0000
 -3.0119 32.8734 -3.6431 13.1021 -3.6457 -1.0909 -11.6841 5.6082 2.9312 -10.9271 -7.6516 7.2128 19.7424 22.2383 25.0475 -33.6258 -6.3756 -31.9753 -14.5509 -0.0000 6.3279 -2.7910 31.4471 5.3384 33.1476 -0.0000 26.2537 -17.5189 -6.2869 -37.0136 -2.6739 -12.3022 35.0397 18.2610 -0.0000 28.1814 1.2519 -10.1776 7.0502 32.8623 0.0000 -24.3270 -8.5255 7.7588 4.2965 0.5150 -0.0000 -0.0000 -8.5088 15.2769 -15.4886 5.6554 -0.0000 0.0000 -10.7153 -2.2552 1.2084 6.0083 0.0000 -0.0000 -10.8871 1.8948 -5.5855 -0.6697 -0.0000 -0.0000
 -3.0350 32.8729 -3.6411 13.1549 -3.6553 -1.0661 -11.6891 5.5374 2.9309 -10.7124 -8.0097 7.3371 19.9111 22.2137 24.8327 -33.8635 -6.3380 -32.1044 -14.7804 -0.0000 6.0275 -2.9811 31.4035 5.7074 33.1476 -0.0000 26.2537 -17.4407 -6.4491 -36.9083 -2.4993 -12.2005 35.1042 18.4097 -0.0000 28.2076 1.2017 -10.2134 6.7469 32.8623 0.0000 -24.3270 -8.5576 7.6780 4.3145 0.4977 0.0000 0.0000 -8.4790 15.3876 -15.5476 5.6578 -0.0000 -0.0000 -10.7874 -2.1674 1.2248 6.0605 -0.0000 0.0000 -10.9228 1.9004 -5.6258 -0.6798 -0.0000 0.0000
 -3.0552 32.8728 -3.6404 13.2254 -3.7010 -1.0435 -11.7229 5.4431 2.9540 -10.4525 -8.3981 7.4972 20.1209 22.2363 24.6008 -34.2034 -6.2265 -32.3293 -15.0269 -0.0000 5.9277 -3.2434 31.4442 6.1997 33.1476 -0.0000 26.2537 -17.4078 -6.4884 -36.7622 -2.2811 -12.1858 35.1342 18.6435 -0.0000 28.2288 1.2683 -10.4350 6.9690 32.8623 0.0000 -24.3270 -8.6152 7.6441 4.3338 0.4938 0.0000 0.0000 -8.4796 15.5078 -15.5593 5.7270 -0.0000 -0.0000 -10.8854 -2.0124 1.2478 6.1123 0.0000 0.0000 -10.9436 1.8673 -5.6700 -0.7299 0.0000 0.0000
 -3.0803 32.8726 -3.6381 13.2753 -3.7556 -1.0270 -11.7136 5.3921 2.9818 -10.2496 -8.8096 7.6022 20.0929 22.1280 24.4360 -34.2029 -6.1670 -32.5462 -15.3553 -0.0000 5.7905 -3.5656 31.4423 6.8119 33.1476 -0.0000 26.2537 -17.3097 -6.6628 -36.6350 -2.0467 -12.0595 35.2285 18.7893 -0.0000 28.1247 1.1297 -10.1593 6.3792 32.8623 0.0000 -24.3270 -8.6443 7.6404 4.3710 0.4724 -0.0000 -0.0000 -8.4575 15.5898 -15.5791 5.7584 0.0000 -0.0000 -10.9669 -1.8420 1.2825 6.1835 0.0000 -0.0000 -10.9744 1.8359 -5.6657 -0.7360 -0.0000 0.0000
 -3.1109 32.8727 -3.6314 13.3063 -3.8317 -1.0390 -11.7055 5.3478 3.0149 -9.9581 -9.2516 7.7949 20.1827 22.0854 24.2486 -34.2923 -6.1806 -32.8063 -15.6413 -0.0000 5.5813 -3.9130 31.4559 7.4676 33.1476 -0.0000 26.2537 -17.2100 -6.8548 -36.4841 -1.8550 -11.9206 35.3644 18.9712 -0.0000 27.9667 1.1083 -10.2985 6.1759 32.8623 0.0000 -24.3270 -8.6417 7.6254 4.4476 0.4421 0.0000 -0.0000 -8.4353 15.6939 -15.6482 5.7440 0.0000 0.0000 -11.0328 -1.6588 1.3461 6.2747 0.0000 -0.0000 -10.9811 1.8458 -5.5842 -0.8408 -0.0000 -0.0000
 -3.1335 32.8715 -3.6238 13.3291 -3.8523 -1.0039 -11.6767 5.2602 3.0125 -9.6617 -9.7029 7.9507 20.3482 22.0338 24.0453 -34.4804 -6.0614 -33.1252 -16.0351 -0.0000 5.2329 -4.2966 31.4388 8.1967 33.1476 -0.0000 26.2537 -17.0904 -7.0760 -36.3506 -1.7471 -11.8626 35.5205 19.1881 -0.0000 27.9565 1.0896 -10.4161 6.0054 32.8623 0.0000 -24.3270 -8.6317 7.6128 4.4516 0.4181 -0.0000 -0.0000 -8.4077 15.7643 -15.6870 5.6922 -0.0000 0.0000 -11.0428 -1.5398 1.3566 6.2756 -0.0000 -0.0000 -11.0235 1.8234 -5.6614 -0.8197 -0.0000 -0.0000
 -3.1576 32.8703 -3.6185 13.3670 -3.8927 -0.9831 -11.6656 5.1684 3.0467 -9.3666 -10.2835 8.0928 20.3840 21.9052 23.8810 -34.3065 -6.0542 -33.4453 -16.4224 -0.0000 5.0564 -4.5385 31.5037 8.6374 33.1476 -0.0000 26.2537 -17.0253 -7.2184 -36.2545 -1.5591 -11.8412 35.7334 19.3041 -0.0000 27.9525 0.9853 -10.2499 5.5205 32.8623 0.0000 -24.3270 -8.6474 7.6096 4.4794 0.4051 0.0000 -0.0000 -8.4011 15.8319 -15.7087 5.7059 0.0000 -0.0000 -11.0925 -1.3536 1.3831 6.3315 -0.0000 -0.0000 -11.0800 1.7301 -5.7460 -0.8063 0.0000 -0.0000
 -3.1896 32.8696 -3.6143 13.4130 -3.8924 -1.0232 -11.6662 5.0438 3.1136 -9.0295 -10.8861 8.2942 20.5424 21.8930 23.6754 -34.3370 -6.1742 -33.8491 -16.7428 -0.0000 4.8982 -4.8976 31.4011 9.3393 33.1476 -0.0000 26.2537 -16.9611 -7.4171 -36.1594 -1.3770 -11.7474 35.9895 19.4254 -0.0000 27.8467 0.9776 -10.2788 5.4624 32.8623 0.0000 -24.3270 -8.7028 7.5862 4.5835 0.4267 0.0000 -0.0000 -8.4056 15.8643 -15.7917 5.7214 0.0000 -0.0000 -11.1743 -1.2817 1.4617 6.4217 0.0000 0.0000 -11.0939 1.8103 -5.5087 -0.8395 -0.0000 -0.0000
 -3.2166 32.8690 -3.6068 13.4413 -3.9165 -1.0210 -11.6476 4.9182 3.1781 -8.6609 -11.4975 8.4056 20.7243 21.7222 23.4128 -34.0768 -6.1864 -34.1258 -17.1943 -0.0000 4.6036 -5.1556 31.4193 9.8194 33.1476 -0.0000 26.2537 -16.8801 -7.6024 -36.0270 -1.2045 -11.6672 36.2001 19.4921 -0.0000 27.7921 0.8963 -10.0550 5.1203 32.8623 0.0000 -24.3270 -8.7116 7.5317 4.6331 0.4291 -0.0000 -0.0000 -8.4313 15.9549 -15.7284 5.8296 0.0000 -0.0000 -11.2057 -1.1384 1.5077 6.4556 -0.0000 0.0000 -11.1179 1.8039 -5.4484 -0.9337 0.0000 -0.0000
 -3.2432 32.8678 -3.5967 13.4490 -3.9579 -0.9973 -11.5985 4.7823 3.1907 -8.2737 -12.1548 8.6173 20.8797 21.7643 23.1312 -34.0843 -6.4242 -34.5608 -17.4180 -0.0000 4.4658 -5.4509 31.4234 10.3720 33.1476 -0.0000 26.2537 -16.7954 -7.7843 -35.9074 -1.0494 -11.6074 36.5120 19.5788 -0.0000 27.9806 0.8483 -9.8584 4.9429 32.8623 0.0000 -24.3270 -8.6965 7.5426 4.6618 0.4377 -0.0000 -0.0000 -8.3966 16.0168 -15.8906 5.6997 0.0000 -0.0000 -11.2094 -0.9734 1.5373 6.4782 0.0000 -0.0000 -11.1374 1.7760 -5.4840 -0.9405 0.0000 -0.0000
 -3.2691 32.8666 -3.5876 13.4624 -4.0676 -0.9617 -11.5594 4.7343 3.2016 -7.8662 -12.8990 8.8004 20.9474 21.6800 22.9487 -33.8244 -6.6378 -35.0143 -17.6743 -0.0000 4.1969 -5.6917 31.3719 10.8381 33.1476 -0.0000 26.2537 -16.7234 -7.9945 -35.8011 -0.8225 -11.4478 36.8721 19.6858 -0.0000 28.0613 0.9074 -10.3116 5.0566 32.8623 0.0000 -24.3270 -8.6820 7.5672 4.6896 0.4526 0.0000 0.0000 -8.4050 16.1284 -15.9533 5.7096 -0.0000 -0.0000 -11.2329 -0.7243 1.5699 6.5126 -0.0000 0.0000 -11.1710 1.7090 -5.5193 -0.9417 0.0000 0.0000
 -3.2893 32.8662 -3.5773 13.4857 -4.1297 -0.9223 -11.5460 4.6295 3.2335 -7.3860 -13.6256 8.9871 21.1826 21.6921 22.6446 -33.7740 -6.9249 -35.5401 -17.8835 -0.0000 4.0685 -6.0479 31.5133 11.4585 33.1476 -0.0000 26.2537 -16.6380 -8.2181 -35.6423 -0.5958 -11.2986 37.1570 19.8362 -0.0000 28.2362 0.9093 -10.3083 5.0684 32.8623 0.0000 -24.3270 -8.6919 7.5629 4.6942 0.4955 -0.0000 0.0000 -8.4195 16.2210 -15.9625 5.7079 0.0000 0.0000 -11.2443 -0.5401 1.5872 6.5109 0.0000 -0.0000 -11.1843 1.6448 -5.6338 -0.9777 -0.0000 0.0000
 -3.3153 32.8669 -3.5674 13.5172 -4.1947 -0.8892 -11.5344 4.5176 3.2579 -6.9096 -14.4035 9.1561 21.3234 21.5777 22.4310 -33.6217 -7.0061 -36.0881 -18.1996 -0.0000 3.9499 -6.1054 31.5016 11.5690 33.1476 -0.0000 26.2537 -16.6188 -8.3913 -35.4875 -0.1951 -11.0541 37.4837 19.8850 -0.0000 28.2273 0.9001 -10.2716 5.0350 32.8623 0.0000 -24.3270 -8.6043 7.1565 4.7129 0.3911 0.0000 0.0000 -8.3890 16.6649 -15.8764 5.8213 0.0000 0.0000 -11.3098 -0.3944 1.5892 6.6117 -0.0000 0.0000 -11.2269 1.7089 -5.4622 -1.0113 -0.0000 -0.0000
 -3.3406 32.8662 -3.5557 13.5220 -4.2551 -0.8675 -11.4948 4.3943 3.3036 -6.4097 -15.2356 9.3239 21.6049 21.4991 22.1868 -33.5912 -7.0997 -36.7184 -18.4225 -0.0000 4.0298 -6.2595 31.5778 11.8302 33.1476 -0.0000 26.2537 -16.5348 -8.6438 -35.3015 0.1174 -10.7172 37.7679 19.8641 -0.0000 28.2262 0.8561 -9.9464 4.9443 32.8623 0.0000 -24.3270 -8.6265 7.0753 4.7464 0.5173 0.0000 0.0000 -8.4690 16.8165 -15.8608 5.8664 -0.0000 0.0000 -11.3204 -0.2463 1.6143 6.6635 0.0000 0.0000 -11.2869 1.7191 -5.3875 -0.9589 -0.0000 -0.0000
 -3.3623 32.8650 -3.5412 13.4987 -4.3355 -0.8429 -11.4251 4.2733 3.3595 -5.8490 -16.0258 9.5519 21.7589 21.3629 21.9311 -33.4153 -7.2593 -37.3211 -18.5904 -0.0000 4.1064 -6.1799 31.4977 11.7086 33.1476 -0.0000 26.2537 -16.4109 -8.9179 -35.0688 0.3258 -10.4453 38.0317 19.9005 -0.0000 28.0991 0.8378 -9.7991 4.9110 32.8623 0.0000 -24.3270 -8.6365 7.0321 4.7725 0.6855 0.0000 -0.0000 -8.5702 16.9489 -15.8298 5.8538 0.0000 0.0000 -11.2989 -0.0993 1.6382 6.7065 -0.0000 0.0000 -11.2960 1.7464 -5.4656 -0.9582 0.0000 0.0000
